<?xml version="1.0" standalone="no"?>
<!DOCTYPE svg PUBLIC "-//W3C//DTD SVG 20010904//EN"
 "http://www.w3.org/TR/2001/REC-SVG-20010904/DTD/svg10.dtd">
<svg version="1.0" xmlns="http://www.w3.org/2000/svg"
 width="180.000000pt" height="180.000000pt" viewBox="0 0 180.000000 180.000000"
 preserveAspectRatio="xMidYMid meet">
<metadata>
Created by potrace 1.11, written by Peter Selinger 2001-2013
</metadata>
<g transform="translate(0.000000,180.000000) scale(0.100000,-0.100000)"
fill="#000000" stroke="none">
<path d="M805 1788 c-46 -27 -50 -38 -53 -149 l-4 -107 -51 -17 c-28 -9 -71
-27 -95 -39 l-43 -22 -74 73 c-103 101 -132 100 -234 -5 -51 -52 -53 -57 -48
-98 4 -37 14 -53 71 -110 58 -59 83 -104 58 -104 -4 0 -21 -36 -37 -80 l-29
-80 -94 0 c-148 0 -172 -21 -169 -156 3 -127 23 -144 169 -144 l93 0 30 -77
c17 -42 34 -86 38 -97 8 -18 -3 -33 -63 -96 -71 -73 -72 -75 -67 -118 4 -35
14 -53 48 -89 50 -51 103 -80 137 -75 13 2 57 36 97 76 l74 72 43 -22 c24 -12
67 -30 96 -39 l52 -17 0 -94 c0 -51 5 -104 11 -117 18 -40 60 -57 138 -57 127
0 151 28 151 173 l0 95 52 17 c29 9 72 27 96 39 l44 22 68 -68 c102 -102 147
-102 238 -2 76 83 71 118 -33 221 l-62 61 38 78 c21 42 38 80 37 83 -3 28 6
31 97 31 52 0 105 5 118 11 40 18 57 60 57 138 0 125 -21 144 -168 151 -56 3
-102 8 -102 12 0 17 -44 124 -56 139 -24 27 -16 45 55 117 67 68 70 72 67 115
-2 37 -10 52 -47 92 -93 99 -134 99 -236 0 l-72 -71 -43 22 c-24 12 -67 30
-96 39 l-52 17 0 94 c0 104 -9 133 -50 157 -33 20 -163 23 -195 5z m225 -510
c134 -51 230 -159 259 -290 48 -212 -97 -438 -304 -477 -118 -22 -236 3 -322
69 -100 75 -154 179 -159 305 -8 190 112 351 296 401 54 15 181 10 230 -8z"/>
</g>
</svg>
